<svg width="15" height="14" viewBox="0 0 15 14" fill="none" xmlns="http://www.w3.org/2000/svg">
<path d="M7.50065 0.333374C3.81732 0.333374 0.833985 3.31671 0.833985 7.00004C0.833183 8.39948 1.27305 9.76364 2.09119 10.899C2.90933 12.0344 4.06421 12.8833 5.39199 13.3254C5.72532 13.3834 5.85065 13.1834 5.85065 13.008C5.85065 12.85 5.84199 12.3254 5.84199 11.7667C4.16732 12.0754 3.73399 11.3587 3.60065 10.9834C3.52532 10.7914 3.20065 10.2 2.91732 10.0414C2.68399 9.91671 2.35065 9.60804 2.90865 9.60004C3.43399 9.59137 3.80865 10.0834 3.93399 10.2834C4.53399 11.2914 5.49199 11.008 5.87532 10.8334C5.93399 10.4 6.10865 10.1087 6.30065 9.94204C4.81732 9.77537 3.26732 9.20004 3.26732 6.65004C3.26732 5.92471 3.52532 5.32537 3.95065 4.85871C3.88399 4.69204 3.65065 4.00871 4.01732 3.09204C4.01732 3.09204 4.57532 2.91671 5.85065 3.77471C6.39339 3.62431 6.95413 3.54872 7.51732 3.55004C8.08399 3.55004 8.65065 3.62471 9.18399 3.77471C10.4593 2.90804 11.0173 3.09204 11.0173 3.09204C11.384 4.00871 11.1507 4.69204 11.084 4.85871C11.5087 5.32537 11.7673 5.91671 11.7673 6.65004C11.7673 9.20871 10.2093 9.77537 8.72599 9.94204C8.96732 10.15 9.17599 10.55 9.17599 11.1754C9.17599 12.0667 9.16732 12.7834 9.16732 13.0087C9.16732 13.1834 9.29265 13.3914 9.62599 13.3247C10.9492 12.8778 12.099 12.0272 12.9135 10.8927C13.7281 9.7581 14.1663 8.3967 14.1667 7.00004C14.1667 3.31671 11.1833 0.333374 7.49999 0.333374" fill="white"/>
</svg>
